#tb 0: 1/15
#media_type 0: video
#codec_id 0: rawvideo
#dimensions 0: 304x224
#sar 0: 0/1
0,          0,          0,        1,   102144, 0x6edc83de
0,          1,          1,        1,   102144, 0xd0534fda
0,          2,          2,        1,   102144, 0x6447911f
0,          3,          3,        1,   102144, 0xf21f3b46
0,          4,          4,        1,   102144, 0x0975077a
0,          5,          5,        1,   102144, 0xb9a12d8e
0,          6,          6,        1,   102144, 0x17413513
0,          7,          7,        1,   102144, 0x1e622a04
0,          8,          8,        1,   102144, 0x7489224e
0,          9,          9,        1,   102144, 0xae14956e
0,         10,         10,        1,   102144, 0x104fd3a0
0,         11,         11,        1,   102144, 0xea63a940
0,         12,         12,        1,   102144, 0x0cf81588
0,         13,         13,        1,   102144, 0xe4a5b2fd
0,         14,         14,        1,   102144, 0x0c9aaf77
0,         15,         15,        1,   102144, 0x065007d7
0,         16,         16,        1,   102144, 0x54c0c29b
0,         17,         17,        1,   102144, 0x1114cb8e
0,         18,         18,        1,   102144, 0xe4270462
0,         19,         19,        1,   102144, 0x61e5b7fd
0,         20,         20,        1,   102144, 0x7cbeaca6
0,         21,         21,        1,   102144, 0xed92daa4
0,         22,         22,        1,   102144, 0xd8654d0d
0,         23,         23,        1,   102144, 0x854e842b
0,         24,         24,        1,   102144, 0x56407c3a
0,         25,         25,        1,   102144, 0x17db3f90
0,         26,         26,        1,   102144, 0x8b133b9a
0,         27,         27,        1,   102144, 0xe4899db9
0,         28,         28,        1,   102144, 0x579cf092
0,         29,         29,        1,   102144, 0x19fa5062
0,         30,         30,        1,   102144, 0x71339792
0,         31,         31,        1,   102144, 0x970e5c0c
0,         32,         32,        1,   102144, 0x84ee616a
0,         33,         33,        1,   102144, 0x1d6f9a23
0,         34,         34,        1,   102144, 0xc28e19db
0,         35,         35,        1,   102144, 0x0e898967
0,         36,         36,        1,   102144, 0x52a8b671
0,         37,         37,        1,   102144, 0x3f45ea83
0,         38,         38,        1,   102144, 0x7b0fc603
0,         39,         39,        1,   102144, 0x14f94469
0,         40,         40,        1,   102144, 0x5b9f37cc
0,         41,         41,        1,   102144, 0xf902b7c7
0,         42,         42,        1,   102144, 0x326836e0
0,         43,         43,        1,   102144, 0x2e4aebba
0,         44,         44,        1,   102144, 0xd10ae58c
0,         45,         45,        1,   102144, 0xbd084ecf
0,         46,         46,        1,   102144, 0xb2157c0a
0,         47,         47,        1,   102144, 0xd7f158d4
0,         48,         48,        1,   102144, 0x3cf86462
0,         49,         49,        1,   102144, 0x53ecddab
0,         50,         50,        1,   102144, 0xcdaba8ef
0,         51,         51,        1,   102144, 0xab9ede18
0,         52,         52,        1,   102144, 0xb6706e79
0,         53,         53,        1,   102144, 0x76371069
0,         54,         54,        1,   102144, 0x3a365016
0,         55,         55,        1,   102144, 0x52177c09
0,         56,         56,        1,   102144, 0xc33eb4fb
0,         57,         57,        1,   102144, 0x16098436
0,         58,         58,        1,   102144, 0x715d6a2b
0,         59,         59,        1,   102144, 0xd3abc960
0,         60,         60,        1,   102144, 0x7f34b0d4
0,         61,         61,        1,   102144, 0xe3219b9c
0,         62,         62,        1,   102144, 0x5fa54f54
0,         63,         63,        1,   102144, 0x0fb746cb
0,         64,         64,        1,   102144, 0xa6bd2da2
0,         65,         65,        1,   102144, 0x04579119
0,         66,         66,        1,   102144, 0xda818691
0,         67,         67,        1,   102144, 0xe9d44445
0,         68,         68,        1,   102144, 0x94868dc9
0,         69,         69,        1,   102144, 0x3ca52ce6
0,         70,         70,        1,   102144, 0xd7eb4c4f
0,         71,         71,        1,   102144, 0xfcdfafca
0,         72,         72,        1,   102144, 0x473a4a5a
0,         73,         73,        1,   102144, 0xe5a5f3cb
0,         74,         74,        1,   102144, 0x34070219
0,         75,         75,        1,   102144, 0x0faa965a
0,         76,         76,        1,   102144, 0xe2c6acda
0,         77,         77,        1,   102144, 0xe22776d5
0,         78,         78,        1,   102144, 0x80d85602
0,         79,         79,        1,   102144, 0x2f3fa190
0,         80,         80,        1,   102144, 0x70b461b1
0,         81,         81,        1,   102144, 0x366c8b27
0,         82,         82,        1,   102144, 0x65cc0866
0,         83,         83,        1,   102144, 0x903beb14
0,         84,         84,        1,   102144, 0xb6c5f5c7
0,         85,         85,        1,   102144, 0xaa813725
0,         86,         86,        1,   102144, 0x014a84a0
0,         87,         87,        1,   102144, 0xd286ece1
0,         88,         88,        1,   102144, 0x48b1c27d
0,         89,         89,        1,   102144, 0xa611ef42
0,         90,         90,        1,   102144, 0x98627584
0,         91,         91,        1,   102144, 0x43de7c75
0,         92,         92,        1,   102144, 0xa9e22c68
0,         93,         93,        1,   102144, 0x84ac34d4
0,         94,         94,        1,   102144, 0x6abd00ba
0,         95,         95,        1,   102144, 0x5d11066e
0,         96,         96,        1,   102144, 0xb6b083aa
0,         97,         97,        1,   102144, 0x5d152a11
0,         98,         98,        1,   102144, 0x0c0aec67
0,         99,         99,        1,   102144, 0xa248bd10
0,        100,        100,        1,   102144, 0x4e6c12cc
0,        101,        101,        1,   102144, 0xca1d6753
0,        102,        102,        1,   102144, 0x116310c3
0,        103,        103,        1,   102144, 0x16903cd0
0,        104,        104,        1,   102144, 0x239adfed
0,        105,        105,        1,   102144, 0x0970ce49
0,        106,        106,        1,   102144, 0xb628adc1
0,        107,        107,        1,   102144, 0x473613f7
0,        108,        108,        1,   102144, 0x3eef3987
0,        109,        109,        1,   102144, 0x935b99ca
0,        110,        110,        1,   102144, 0xb9f4d6ee
0,        111,        111,        1,   102144, 0xac811656
0,        112,        112,        1,   102144, 0xd1f84af0
0,        113,        113,        1,   102144, 0xf2fd25f4
0,        114,        114,        1,   102144, 0x935bbed9
0,        115,        115,        1,   102144, 0x8c8c3e53
0,        116,        116,        1,   102144, 0x24afc20f
0,        117,        117,        1,   102144, 0xad20a451
0,        118,        118,        1,   102144, 0xd1a0df13
0,        119,        119,        1,   102144, 0xb0ee53f8
0,        120,        120,        1,   102144, 0x08cdb591
0,        121,        121,        1,   102144, 0x89b985b0
0,        122,        122,        1,   102144, 0xdd27d51f
0,        123,        123,        1,   102144, 0xa783fce0
0,        124,        124,        1,   102144, 0xfe5602e8
0,        125,        125,        1,   102144, 0xfb989934
0,        126,        126,        1,   102144, 0xf857eb2b
0,        127,        127,        1,   102144, 0x987a7098
0,        128,        128,        1,   102144, 0xbc749f42
0,        129,        129,        1,   102144, 0x221e48a6
0,        130,        130,        1,   102144, 0x4c4b5da2
0,        131,        131,        1,   102144, 0x32140027
0,        132,        132,        1,   102144, 0xbeb4bf18
0,        133,        133,        1,   102144, 0x523012e5
